<!DOCTYPE svg PUBLIC "-//W3C//DTD SVG 1.1//EN" "http://www.w3.org/Graphics/SVG/1.1/DTD/svg11.dtd">
<!-- Uploaded to: SVG Repo, www.svgrepo.com, Transformed by: SVG Repo Mixer Tools -->
<svg fill="#000000" height="800px" width="800px" version="1.1" id="Layer_1" xmlns="http://www.w3.org/2000/svg" xmlns:xlink="http://www.w3.org/1999/xlink" viewBox="0 0 512.002 512.002" xml:space="preserve">
<g id="SVGRepo_bgCarrier" stroke-width="0"/>
<g id="SVGRepo_tracerCarrier" stroke-linecap="round" stroke-linejoin="round"/>
<g id="SVGRepo_iconCarrier"> <g> <g> <path d="M149.612,282.5c-6.135-1.192-12.299-2.488-18.32-3.853c-4.097-0.931-8.169,1.64-9.096,5.735 c-0.929,4.096,1.64,8.169,5.735,9.096c6.174,1.399,12.493,2.727,18.78,3.95c0.49,0.095,7.226,2.18,8.915-6.014 C156.474,287.302,153.735,283.301,149.612,282.5z"/> </g> </g> <g> <g> <path d="M464.187,235.545c-0.4-2.311-10.116-57.227-38.106-112.658C385.484,42.494,326.672,0,256,0S126.515,42.494,85.919,122.887 c-12.823,25.395-21.809,50.679-27.823,70.85c-0.041,0.126-0.079,0.251-0.113,0.379c-7.031,23.653-9.955,40.184-10.171,41.43 c-3.088,17.843,6.941,35.498,23.846,41.981c0.095,0.036,9.997,3.785,27.763,8.759c4.048,1.134,8.241-1.23,9.372-5.273 c1.133-4.044-1.229-8.241-5.273-9.372c-16.822-4.708-26.324-8.277-26.414-8.312c-10.144-3.89-16.161-14.483-14.308-25.188 c0.167-0.967,2.037-11.539,6.325-27.58c13.808,11.577,31.285,18.034,49.605,18.034c42.618,0,77.289-34.671,77.289-77.289 c0-20.377-7.863-39.602-22.139-54.136c-10.84-11.035-24.452-18.415-39.289-21.497c19.675-23.322,41.984-40.085,66.482-49.96 c-0.022,0.761-0.056,1.523-0.056,2.282c0,42.618,34.672,77.29,77.289,77.29c34.334,0,64.148-22.799,73.897-54.73 c23.032,19.014,43.311,45.537,60.305,79.189c26.979,53.427,36.312,106.178,36.697,108.397c1.871,10.805-4.229,21.43-14.503,25.263 c-53.602,19.999-111.95,30.14-173.422,30.14c-26.783,0-54.465-2.04-82.275-6.062c-4.161-0.608-8.013,2.28-8.615,6.438 c-0.601,4.156,2.281,8.013,6.437,8.614c10.191,1.474,20.365,2.677,30.492,3.63c-9.303,36.108-16.072,76.14-19.425,102.836 c-0.524,4.166,2.429,7.968,6.596,8.492c0.322,0.041,0.641,0.061,0.957,0.061c3.777,0,7.052-2.811,7.535-6.657 c3.374-26.858,10.261-67.442,19.727-103.492c12.996,0.884,25.882,1.35,38.57,1.35c9.467,0,18.863-0.239,28.184-0.707 c13.795,52.783,22.169,115.402,22.169,133.118c0,30.674-24.956,55.63-55.631,55.63s-55.631-24.955-55.631-55.63 c0-4.2-3.405-7.604-7.604-7.604s-7.604,3.404-7.604,7.604c0,39.06,31.778,70.837,70.838,70.837 c39.06,0,70.839-31.777,70.839-70.838c0-20.387-8.651-82.271-21.927-134.115c47.374-3.724,92.661-13.561,135.103-29.397 C457.139,271.263,467.304,253.555,464.187,235.545z M180.808,151.304c0,34.232-27.85,62.081-62.081,62.081 c-17.048,0-33.186-6.968-44.887-19.229c5.765-18.728,14.087-41.506,25.654-64.414c7.483-14.821,15.607-28.252,24.319-40.277 C155.575,92.083,180.808,119.042,180.808,151.304z M278.303,90.077c-34.232,0-62.081-27.85-62.081-62.082 c0-2.516,0.173-5.045,0.482-7.561c12.601-3.465,25.717-5.225,39.296-5.225c30.157,0,58.037,8.647,83.045,25.5 C333.121,69.151,307.787,90.077,278.303,90.077z"/> </g> </g> <g> <g> <path d="M294.647,112.782c-42.617,0-77.289,34.671-77.289,77.289c0,42.618,34.671,77.289,77.289,77.289 c42.618,0,77.29-34.671,77.29-77.289C371.937,147.453,337.265,112.782,294.647,112.782z M294.647,252.15 c-34.231,0-62.081-27.85-62.081-62.081c0-34.231,27.849-62.081,62.081-62.081s62.082,27.85,62.082,62.081 C356.729,224.301,328.879,252.15,294.647,252.15z"/> </g> </g> <g> <g> <path d="M419.14,214.202c-0.755-4.13-4.719-6.864-8.846-6.115c-4.131,0.754-6.87,4.714-6.116,8.846 c1.585,8.684,2.388,16.971,2.388,24.634c0,4.2,3.405,7.604,7.604,7.604s7.604-3.405,7.605-7.605 C421.775,232.99,420.888,223.784,419.14,214.202z"/> </g> </g> <g> <g> <path d="M411.664,185.197c-10.868-33.23-26.527-58.867-27.188-59.943c-2.198-3.576-6.879-4.692-10.457-2.493 c-3.576,2.198-4.694,6.881-2.497,10.458c0.152,0.249,15.403,25.255,25.688,56.704c1.048,3.207,4.026,5.243,7.226,5.243 c0.784,0,1.581-0.122,2.364-0.378C410.792,193.482,412.97,189.189,411.664,185.197z"/> </g> </g> <g> <g> <path d="M294.346,416.181c-0.502-4.17-4.293-7.16-8.458-6.642c-4.17,0.501-7.144,4.289-6.642,8.458 c1.25,10.403,1.968,18.847,1.968,23.165c0,9.34-5.144,17.879-13.426,22.285c-3.709,1.972-5.115,6.577-3.143,10.285 c1.368,2.569,3.999,4.034,6.72,4.034c1.204,0,2.427-0.287,3.566-0.892c13.256-7.05,21.492-20.736,21.492-35.711 C296.424,436.193,295.686,427.32,294.346,416.181z"/> </g> </g> </g>
</svg>